<svg width="500" height="500" viewBox="0 0 500 500" fill="none" xmlns="http://www.w3.org/2000/svg">
<rect width="500" height="500" fill="#EEEEEE"/>
<path d="M168.078 378V366.45C176.945 365.983 183.011 364 186.278 360.5C189.545 356.767 191.295 351.75 191.528 345.45C191.995 338.917 192.228 331.567 192.228 323.4V172.2C192.228 167.533 192.345 163.1 192.578 158.9C192.811 154.467 193.045 150.5 193.278 147C189.078 147.233 184.878 147.467 180.678 147.7C176.478 147.933 172.278 148.167 168.078 148.4V133H246.828V144.55C238.195 144.783 232.128 146.767 228.628 150.5C225.361 154.233 223.495 159.25 223.028 165.55C222.795 171.85 222.678 179.2 222.678 187.6V337.75C222.678 344.05 222.561 349.417 222.328 353.85C222.328 358.283 222.095 362.017 221.628 365.05L287.078 364C301.778 363.767 312.861 359.1 320.328 350C328.028 340.9 331.878 326.083 331.878 305.55H343.778L341.678 378H168.078Z" fill="black"/>
</svg>
